<svg id="visual" viewBox="0 0 960 540" width="960" height="540" xmlns="http://www.w3.org/2000/svg" xmlns:xlink="http://www.w3.org/1999/xlink" version="1.1"><rect x="0" y="0" width="960" height="540" fill="#FA7268"></rect><path d="M0 124L20 119.8C40 115.7 80 107.3 120 101.7C160 96 200 93 240 95.3C280 97.7 320 105.3 360 105.8C400 106.3 440 99.7 480 97.3C520 95 560 97 600 103.7C640 110.3 680 121.7 720 126.2C760 130.7 800 128.3 840 124.3C880 120.3 920 114.7 940 111.8L960 109L960 0L940 0C920 0 880 0 840 0C800 0 760 0 720 0C680 0 640 0 600 0C560 0 520 0 480 0C440 0 400 0 360 0C320 0 280 0 240 0C200 0 160 0 120 0C80 0 40 0 20 0L0 0Z" fill="#fa7268"></path><path d="M0 110L20 109C40 108 80 106 120 102.2C160 98.3 200 92.7 240 86.5C280 80.3 320 73.7 360 71.3C400 69 440 71 480 72.8C520 74.7 560 76.3 600 81.5C640 86.7 680 95.3 720 97.7C760 100 800 96 840 94.5C880 93 920 94 940 94.5L960 95L960 0L940 0C920 0 880 0 840 0C800 0 760 0 720 0C680 0 640 0 600 0C560 0 520 0 480 0C440 0 400 0 360 0C320 0 280 0 240 0C200 0 160 0 120 0C80 0 40 0 20 0L0 0Z" fill="#ef5f67"></path><path d="M0 77L20 75C40 73 80 69 120 67C160 65 200 65 240 65.3C280 65.7 320 66.3 360 69.7C400 73 440 79 480 77.8C520 76.7 560 68.3 600 62.3C640 56.3 680 52.7 720 57C760 61.3 800 73.7 840 79.7C880 85.7 920 85.3 940 85.2L960 85L960 0L940 0C920 0 880 0 840 0C800 0 760 0 720 0C680 0 640 0 600 0C560 0 520 0 480 0C440 0 400 0 360 0C320 0 280 0 240 0C200 0 160 0 120 0C80 0 40 0 20 0L0 0Z" fill="#e34c67"></path><path d="M0 62L20 59.7C40 57.3 80 52.7 120 49.2C160 45.7 200 43.3 240 45.5C280 47.7 320 54.3 360 54.7C400 55 440 49 480 45.3C520 41.7 560 40.3 600 41C640 41.7 680 44.3 720 45.8C760 47.3 800 47.7 840 48.8C880 50 920 52 940 53L960 54L960 0L940 0C920 0 880 0 840 0C800 0 760 0 720 0C680 0 640 0 600 0C560 0 520 0 480 0C440 0 400 0 360 0C320 0 280 0 240 0C200 0 160 0 120 0C80 0 40 0 20 0L0 0Z" fill="#d53867"></path><path d="M0 27L20 24.8C40 22.7 80 18.3 120 16.7C160 15 200 16 240 16.5C280 17 320 17 360 17.3C400 17.7 440 18.3 480 19.5C520 20.7 560 22.3 600 22.8C640 23.3 680 22.7 720 24C760 25.3 800 28.7 840 30C880 31.3 920 30.7 940 30.3L960 30L960 0L940 0C920 0 880 0 840 0C800 0 760 0 720 0C680 0 640 0 600 0C560 0 520 0 480 0C440 0 400 0 360 0C320 0 280 0 240 0C200 0 160 0 120 0C80 0 40 0 20 0L0 0Z" fill="#c62368"></path></svg>