<svg id="visual" viewBox="0 0 960 540" width="960" height="540" xmlns="http://www.w3.org/2000/svg" xmlns:xlink="http://www.w3.org/1999/xlink" version="1.1"><rect x="0" y="0" width="960" height="540" fill="#001220"></rect><path d="M0 430L20 432C40 434 80 438 120 440.7C160 443.3 200 444.7 240 446.8C280 449 320 452 360 451.5C400 451 440 447 480 443.8C520 440.7 560 438.3 600 434.7C640 431 680 426 720 424C760 422 800 423 840 425.3C880 427.7 920 431.3 940 433.2L960 435L960 541L940 541C920 541 880 541 840 541C800 541 760 541 720 541C680 541 640 541 600 541C560 541 520 541 480 541C440 541 400 541 360 541C320 541 280 541 240 541C200 541 160 541 120 541C80 541 40 541 20 541L0 541Z" fill="#fa7268"></path><path d="M0 449L20 451.8C40 454.7 80 460.3 120 461.8C160 463.3 200 460.7 240 462.2C280 463.7 320 469.3 360 470.3C400 471.3 440 467.7 480 461.3C520 455 560 446 600 442.5C640 439 680 441 720 445.2C760 449.3 800 455.7 840 453.7C880 451.7 920 441.3 940 436.2L960 431L960 541L940 541C920 541 880 541 840 541C800 541 760 541 720 541C680 541 640 541 600 541C560 541 520 541 480 541C440 541 400 541 360 541C320 541 280 541 240 541C200 541 160 541 120 541C80 541 40 541 20 541L0 541Z" fill="#ef5f67"></path><path d="M0 456L20 458.2C40 460.3 80 464.7 120 465.8C160 467 200 465 240 465.7C280 466.3 320 469.7 360 473.3C400 477 440 481 480 480.7C520 480.3 560 475.7 600 473.5C640 471.3 680 471.7 720 473.8C760 476 800 480 840 481C880 482 920 480 940 479L960 478L960 541L940 541C920 541 880 541 840 541C800 541 760 541 720 541C680 541 640 541 600 541C560 541 520 541 480 541C440 541 400 541 360 541C320 541 280 541 240 541C200 541 160 541 120 541C80 541 40 541 20 541L0 541Z" fill="#e34c67"></path><path d="M0 490L20 490.7C40 491.3 80 492.7 120 491.5C160 490.3 200 486.7 240 487C280 487.3 320 491.7 360 492.8C400 494 440 492 480 493C520 494 560 498 600 497.8C640 497.7 680 493.3 720 493C760 492.7 800 496.3 840 495.5C880 494.7 920 489.3 940 486.7L960 484L960 541L940 541C920 541 880 541 840 541C800 541 760 541 720 541C680 541 640 541 600 541C560 541 520 541 480 541C440 541 400 541 360 541C320 541 280 541 240 541C200 541 160 541 120 541C80 541 40 541 20 541L0 541Z" fill="#d53867"></path><path d="M0 523L20 522.7C40 522.3 80 521.7 120 518.3C160 515 200 509 240 508.3C280 507.7 320 512.3 360 513C400 513.7 440 510.3 480 511.2C520 512 560 517 600 518.5C640 520 680 518 720 515.2C760 512.3 800 508.7 840 506C880 503.3 920 501.7 940 500.8L960 500L960 541L940 541C920 541 880 541 840 541C800 541 760 541 720 541C680 541 640 541 600 541C560 541 520 541 480 541C440 541 400 541 360 541C320 541 280 541 240 541C200 541 160 541 120 541C80 541 40 541 20 541L0 541Z" fill="#c62368"></path></svg>