<svg id="visual" viewBox="0 0 960 540" width="960" height="540" xmlns="http://www.w3.org/2000/svg" xmlns:xlink="http://www.w3.org/1999/xlink" version="1.1"><rect x="0" y="0" width="960" height="540" fill="#001220"></rect><path d="M0 121L20 114.8C40 108.7 80 96.3 120 96.2C160 96 200 108 240 112.5C280 117 320 114 360 111C400 108 440 105 480 105.2C520 105.3 560 108.7 600 111.2C640 113.7 680 115.3 720 116.7C760 118 800 119 840 118.3C880 117.7 920 115.3 940 114.2L960 113L960 0L940 0C920 0 880 0 840 0C800 0 760 0 720 0C680 0 640 0 600 0C560 0 520 0 480 0C440 0 400 0 360 0C320 0 280 0 240 0C200 0 160 0 120 0C80 0 40 0 20 0L0 0Z" fill="#fa7268"></path><path d="M0 78L20 81C40 84 80 90 120 89.3C160 88.7 200 81.3 240 78.2C280 75 320 76 360 81.8C400 87.7 440 98.3 480 103.3C520 108.3 560 107.7 600 103C640 98.3 680 89.7 720 84C760 78.3 800 75.7 840 78.7C880 81.7 920 90.3 940 94.7L960 99L960 0L940 0C920 0 880 0 840 0C800 0 760 0 720 0C680 0 640 0 600 0C560 0 520 0 480 0C440 0 400 0 360 0C320 0 280 0 240 0C200 0 160 0 120 0C80 0 40 0 20 0L0 0Z" fill="#ef5f67"></path><path d="M0 62L20 60.8C40 59.7 80 57.3 120 61.2C160 65 200 75 240 78.7C280 82.3 320 79.7 360 73.7C400 67.7 440 58.3 480 59.7C520 61 560 73 600 75.7C640 78.3 680 71.7 720 72C760 72.3 800 79.7 840 80.3C880 81 920 75 940 72L960 69L960 0L940 0C920 0 880 0 840 0C800 0 760 0 720 0C680 0 640 0 600 0C560 0 520 0 480 0C440 0 400 0 360 0C320 0 280 0 240 0C200 0 160 0 120 0C80 0 40 0 20 0L0 0Z" fill="#e34c67"></path><path d="M0 47L20 44.3C40 41.7 80 36.3 120 33.5C160 30.7 200 30.3 240 32.3C280 34.3 320 38.7 360 42.2C400 45.7 440 48.3 480 47C520 45.7 560 40.3 600 40.3C640 40.3 680 45.7 720 44.8C760 44 800 37 840 36.8C880 36.7 920 43.3 940 46.7L960 50L960 0L940 0C920 0 880 0 840 0C800 0 760 0 720 0C680 0 640 0 600 0C560 0 520 0 480 0C440 0 400 0 360 0C320 0 280 0 240 0C200 0 160 0 120 0C80 0 40 0 20 0L0 0Z" fill="#d53867"></path><path d="M0 38L20 35.7C40 33.3 80 28.7 120 25.3C160 22 200 20 240 19.7C280 19.3 320 20.7 360 23.3C400 26 440 30 480 32.7C520 35.3 560 36.7 600 33.5C640 30.3 680 22.7 720 20.2C760 17.7 800 20.3 840 21.8C880 23.3 920 23.7 940 23.8L960 24L960 0L940 0C920 0 880 0 840 0C800 0 760 0 720 0C680 0 640 0 600 0C560 0 520 0 480 0C440 0 400 0 360 0C320 0 280 0 240 0C200 0 160 0 120 0C80 0 40 0 20 0L0 0Z" fill="#c62368"></path></svg>