<svg id="visual" viewBox="0 0 960 540" width="960" height="540" xmlns="http://www.w3.org/2000/svg" xmlns:xlink="http://www.w3.org/1999/xlink" version="1.1"><rect x="0" y="0" width="960" height="540" fill="#FA7268"></rect><path d="M0 445L20 445.3C40 445.7 80 446.3 120 442.2C160 438 200 429 240 423.7C280 418.3 320 416.7 360 415.3C400 414 440 413 480 419.3C520 425.7 560 439.3 600 444.8C640 450.3 680 447.7 720 443C760 438.3 800 431.7 840 425.2C880 418.7 920 412.3 940 409.2L960 406L960 541L940 541C920 541 880 541 840 541C800 541 760 541 720 541C680 541 640 541 600 541C560 541 520 541 480 541C440 541 400 541 360 541C320 541 280 541 240 541C200 541 160 541 120 541C80 541 40 541 20 541L0 541Z" fill="#fa7268"></path><path d="M0 434L20 437.3C40 440.7 80 447.3 120 452C160 456.7 200 459.3 240 456.8C280 454.3 320 446.7 360 447.2C400 447.7 440 456.3 480 460.8C520 465.3 560 465.7 600 466.3C640 467 680 468 720 463.5C760 459 800 449 840 443.7C880 438.3 920 437.7 940 437.3L960 437L960 541L940 541C920 541 880 541 840 541C800 541 760 541 720 541C680 541 640 541 600 541C560 541 520 541 480 541C440 541 400 541 360 541C320 541 280 541 240 541C200 541 160 541 120 541C80 541 40 541 20 541L0 541Z" fill="#ef5f67"></path><path d="M0 467L20 465.3C40 463.7 80 460.3 120 464.2C160 468 200 479 240 481C280 483 320 476 360 469.7C400 463.3 440 457.7 480 456.7C520 455.7 560 459.3 600 465.8C640 472.3 680 481.7 720 481.7C760 481.7 800 472.3 840 467.3C880 462.3 920 461.7 940 461.3L960 461L960 541L940 541C920 541 880 541 840 541C800 541 760 541 720 541C680 541 640 541 600 541C560 541 520 541 480 541C440 541 400 541 360 541C320 541 280 541 240 541C200 541 160 541 120 541C80 541 40 541 20 541L0 541Z" fill="#e34c67"></path><path d="M0 493L20 493.7C40 494.3 80 495.7 120 494.7C160 493.7 200 490.3 240 491.2C280 492 320 497 360 496.2C400 495.3 440 488.7 480 489C520 489.3 560 496.7 600 496.3C640 496 680 488 720 488.3C760 488.7 800 497.3 840 498C880 498.7 920 491.3 940 487.7L960 484L960 541L940 541C920 541 880 541 840 541C800 541 760 541 720 541C680 541 640 541 600 541C560 541 520 541 480 541C440 541 400 541 360 541C320 541 280 541 240 541C200 541 160 541 120 541C80 541 40 541 20 541L0 541Z" fill="#d53867"></path><path d="M0 506L20 507.3C40 508.7 80 511.3 120 512.2C160 513 200 512 240 512.5C280 513 320 515 360 515.2C400 515.3 440 513.7 480 515C520 516.3 560 520.7 600 520.8C640 521 680 517 720 516.8C760 516.7 800 520.3 840 520C880 519.7 920 515.3 940 513.2L960 511L960 541L940 541C920 541 880 541 840 541C800 541 760 541 720 541C680 541 640 541 600 541C560 541 520 541 480 541C440 541 400 541 360 541C320 541 280 541 240 541C200 541 160 541 120 541C80 541 40 541 20 541L0 541Z" fill="#c62368"></path></svg>